<svg width="34" height="34" viewBox="0 0 34 34" fill="none" xmlns="http://www.w3.org/2000/svg">
<circle cx="17" cy="17" r="16.5" fill="white" stroke="#8AB267"/>
<g clip-path="url(#clip0_71_55)">
<path fill-rule="evenodd" clip-rule="evenodd" d="M21.0666 16.9856L25.1454 12.9104C26.2707 11.7872 26.2707 9.95843 25.1454 8.83523C24.0186 7.70483 22.1927 7.70483 21.0666 8.83523L16.9885 12.9104L12.9104 8.83523C11.7851 7.70483 9.95914 7.70483 8.83234 8.83523C7.70698 9.95843 7.70698 11.7872 8.83234 12.9104L12.9104 16.9856L8.83234 21.068C7.70698 22.1912 7.70698 24.02 8.83234 25.1432C9.95914 26.2736 11.7851 26.2736 12.9104 25.1432L16.9885 21.068L21.0666 25.1432C22.1927 26.2736 24.0186 26.2736 25.1454 25.1432C26.2707 24.02 26.2707 22.1912 25.1454 21.068L21.0666 16.9856Z" fill="#D96D6D"/>
</g>
<defs>
<clipPath id="clip0_71_55">
<rect width="18" height="18" fill="white" transform="translate(8 8)"/>
</clipPath>
</defs>
</svg>
