<svg width="100" height="100" viewBox="0 0 100 100" fill="none" xmlns="http://www.w3.org/2000/svg">
<path fill-rule="evenodd" clip-rule="evenodd" d="M50 75C63.8071 75 75 63.8071 75 50C75 36.1929 63.8071 25 50 25C36.1929 25 25 36.1929 25 50C25 63.8071 36.1929 75 50 75ZM50 66.6667C59.2046 66.6667 66.6667 59.2046 66.6667 50C66.6667 40.7952 59.2046 33.3333 50 33.3333C40.7952 33.3333 33.3333 40.7952 33.3333 50C33.3333 59.2046 40.7952 66.6667 50 66.6667Z" fill="#346E2C"/>
<path d="M75 20.8334C72.6988 20.8334 70.8334 22.6989 70.8334 25C70.8334 27.3012 72.6988 29.1667 75 29.1667C77.3013 29.1667 79.1667 27.3012 79.1667 25C79.1667 22.6989 77.3013 20.8334 75 20.8334Z" fill="#346E2C"/>
<path fill-rule="evenodd" clip-rule="evenodd" d="M6.89146 17.8169C4.16663 23.1647 4.16663 30.1653 4.16663 44.1666V55.8333C4.16663 69.8345 4.16663 76.8354 6.89146 82.1829C9.28829 86.887 13.1128 90.7116 17.8169 93.1083C23.1647 95.8333 30.1653 95.8333 44.1666 95.8333H55.8333C69.8345 95.8333 76.8354 95.8333 82.1829 93.1083C86.887 90.7116 90.7116 86.887 93.1083 82.1829C95.8333 76.8354 95.8333 69.8345 95.8333 55.8333V44.1666C95.8333 30.1653 95.8333 23.1647 93.1083 17.8169C90.7116 13.1128 86.887 9.28829 82.1829 6.89146C76.8354 4.16663 69.8345 4.16663 55.8333 4.16663H44.1666C30.1653 4.16663 23.1647 4.16663 17.8169 6.89146C13.1128 9.28829 9.28829 13.1128 6.89146 17.8169ZM55.8333 12.5H44.1666C37.0285 12.5 32.176 12.5065 28.4253 12.8129C24.7718 13.1114 22.9035 13.6524 21.6001 14.3165C18.4641 15.9144 15.9144 18.4641 14.3165 21.6001C13.6524 22.9035 13.1114 24.7718 12.8129 28.4253C12.5065 32.176 12.5 37.0285 12.5 44.1666V55.8333C12.5 62.9716 12.5065 67.8237 12.8129 71.5745C13.1114 75.2283 13.6524 77.0966 14.3165 78.4C15.9144 81.5358 18.4641 84.0854 21.6001 85.6833C22.9035 86.3475 24.7718 86.8887 28.4253 87.187C32.176 87.4933 37.0285 87.5 44.1666 87.5H55.8333C62.9716 87.5 67.8237 87.4933 71.5745 87.187C75.2283 86.8887 77.0966 86.3475 78.4 85.6833C81.5358 84.0854 84.0854 81.5358 85.6833 78.4C86.3475 77.0966 86.8887 75.2283 87.187 71.5745C87.4933 67.8237 87.5 62.9716 87.5 55.8333V44.1666C87.5 37.0285 87.4933 32.176 87.187 28.4253C86.8887 24.7718 86.3475 22.9035 85.6833 21.6001C84.0854 18.4641 81.5358 15.9144 78.4 14.3165C77.0966 13.6524 75.2283 13.1114 71.5745 12.8129C67.8237 12.5065 62.9716 12.5 55.8333 12.5Z" fill="#346E2C"/>
</svg>
