<svg width="34" height="34" viewBox="0 0 34 34" fill="none" xmlns="http://www.w3.org/2000/svg">
<circle cx="17" cy="17" r="16.5" fill="white" stroke="#8AB267"/>
<path d="M25.0437 17V24.4181C25.0442 24.5004 25.0283 24.582 24.9971 24.6581C24.9658 24.7342 24.9197 24.8033 24.8615 24.8615C24.8033 24.9197 24.7342 24.9658 24.6581 24.9971C24.582 25.0283 24.5004 25.0442 24.4181 25.0437H9.58187C9.49959 25.0442 9.41803 25.0283 9.34192 24.9971C9.26581 24.9658 9.19666 24.9197 9.13847 24.8615C9.08029 24.8033 9.03422 24.7342 9.00294 24.6581C8.97166 24.582 8.95579 24.5004 8.95625 24.4181V9.58187C8.95579 9.49959 8.97166 9.41803 9.00294 9.34192C9.03422 9.26581 9.08029 9.19666 9.13847 9.13847C9.19666 9.08029 9.26581 9.03422 9.34192 9.00294C9.41803 8.97166 9.49959 8.95579 9.58187 8.95625H17" stroke="#C4935B" stroke-width="2"/>
<path d="M19.86 8.95624H25.0438V14.3119" stroke="#C4935B" stroke-width="2"/>
<path d="M12.6413 21.7162L24.7722 9.06281" stroke="#C4935B" stroke-width="2"/>
</svg>
